<?xml version="1.0" encoding="UTF-8"?>
<svg id="Layer_2" data-name="Layer 2" xmlns="http://www.w3.org/2000/svg" viewBox="0 0 254.5 249.78">
  <defs>
    <style>
      .cls-1 {
        fill: #383030;
      }
    </style>
  </defs>
  <g id="Layer_1-2" data-name="Layer 1">
    <g>
      <path class="cls-1" d="M229.41,8.5c12.13,7.31,30.07,25.31,23.78,39.82-6.97,16.08-33.68,28.41-49.38,35.75l-13.68,6.4-38.5,19.55c-19.29,9.8-36.65,21.77-52.39,36.38-17.38,16.13-29.57,35.39-35.68,58.09-1.51,5.6-6.87,10.07-12.72,9.33-6.53-.82-11.72-8.82-9.35-16.26,14.64-46.06,30.39-91.29,47.9-136.57,6.55-16.93,13.49-32.48,21.96-48.24,2.18-4.06,5.1-7.77,8.49-10.78,15.88-14.07,46.36,51.43,49.84,61.83,2.48,15.71-3.53,30.08-18.3,36.93-8.88-18.06-16.85-35.13-27.04-52.98l-32.46,82.82c18.84-9.83,37.52-17.61,57.16-25.26l37.42-14.58c20.82-9.7,55.98-25.22,51.01-53.63-1.7-9.72-5.36-18.12-8.07-28.6Z"/>
      <path class="cls-1" d="M56.57,240.92c-19.76,12.48-40.97,13.24-56.57-7.25,50.52,3.84,77.11-7.01,101.65-49.56l11.74-20.36c11.49-19.92,26.68-35.89,52.09-31.4-3.66-11.94,1.7-22.9,12.49-27.38l8.5-3.52c4.86,13.6,16.88,47.67,13.84,60.62-2.21,9.41-11.21,14.17-20.27,10.74-13.14-4.96-17.66-22.54-33.99-13.99-7.77,4.07-14.92,9.76-21.18,16.42l-36.8,39.08c-9.59,10.19-19.74,19.16-31.51,26.6Z"/>
    </g>
  </g>
</svg>